<?xml version="1.0" encoding="UTF-8"?>
<svg width="18px" height="18px" viewBox="0 0 18 18" version="1.1" xmlns="http://www.w3.org/2000/svg" xmlns:xlink="http://www.w3.org/1999/xlink">
    <!-- Generator: Sketch 46 (44423) - http://www.bohemiancoding.com/sketch -->
    <title>Zalo icon_light</title>
    <desc>Created with Sketch.</desc>
    <defs>
        <polygon id="path-1" points="0 7.875 0 15.75 15.75 15.75 15.75 7.875 15.75 -7.10542736e-15 0 -7.10542736e-15"></polygon>
    </defs>
    <g id="Page-2" stroke="none" stroke-width="1" fill="none" fill-rule="evenodd">
        <g id="Zalo-icon_light">
            <circle id="Oval-7" fill="#FFFFFF" cx="9" cy="9" r="9"></circle>
            <g id="Page-1" transform="translate(0.992647, 0.992647)">
                <g id="Group-3" transform="translate(0.000000, -0.000000)">
                    <mask id="mask-2" fill="white">
                        <use xlink:href="#path-1"></use>
                    </mask>
                    <g id="Clip-2"></g>
                    <path d="M15.4513387,7.75806581 C15.4513387,9.51880563 14.7095947,11.1191096 13.4985605,12.3064506 C13.1937816,12.559557 12.9068969,12.8410437 12.579606,13.0588194 C11.8771138,13.5268055 11.1555729,13.868528 10.4172922,14.0886205 C10.4155605,14.0891997 10.4144061,14.0897789 10.4126744,14.0897789 C9.74135273,14.2832286 9.02731586,14.3869037 8.28672629,14.3869037 C8.23592981,14.3869037 8.1845561,14.3863245 8.13433685,14.3851661 C7.38451155,14.3637361 6.61910097,14.2305222 5.84099128,13.9884205 C5.82886939,13.9849453 5.81732473,13.980891 5.80520285,13.9779951 C5.45193643,13.8743199 5.13099504,13.8754783 4.78523264,13.9785743 C4.35519427,14.1065754 3.92226973,14.2311014 3.48299564,14.3197176 C3.00966481,14.4147049 2.52709826,14.4100713 2.05088127,14.3116089 C2.00643435,14.3023419 1.968337,14.2612193 1.92735347,14.2357349 C1.95679234,14.19635 1.97872718,14.1482771 2.01624731,14.120476 C2.17036845,14.0075338 2.33487977,13.907913 2.48496027,13.7897581 C2.77877173,13.5569234 3.04891664,13.3020795 3.20072884,12.9464564 C3.29654947,12.7211512 3.270574,12.5277015 3.0835506,12.3551026 C2.93924242,12.2218888 2.8047472,12.0770911 2.67660154,11.9282391 C1.91754052,11.0461316 1.42516101,10.0586114 1.23756038,8.9517779 C1.18618667,8.64944034 1.15790226,8.33783573 1.15270717,8.01754325 C1.14866654,7.76791205 1.1515527,7.51828084 1.15212994,7.26864964 C1.14808931,7.33873172 1.13250403,7.40997218 1.13365849,7.48063345 C1.13365849,7.50959298 1.13134956,7.53391899 1.125,7.55419067 C1.24160101,3.98753415 4.40368182,1.1292279 8.28672629,1.1292279 C12.2436565,1.1292279 15.4513387,4.0970012 15.4513387,7.75806581" id="Fill-1" fill="#10A8E1" mask="url(#mask-2)"></path>
                </g>
                <g id="Group-25" transform="translate(3.242647, 5.360294)" fill="#FFFFFF">
                    <path d="M1.73484403,0.98198542 C1.67877835,1.05985767 1.65054089,1.10224309 1.61920491,1.14217308 C1.32525471,1.51650942 1.03031065,1.89002728 0.736652761,2.26448055 C0.526947239,2.53194717 0.307829231,2.79292443 0.112739372,3.07068048 C-0.0924060628,3.36270141 0.0504181884,3.68798759 0.392600072,3.6954708 C1.09836117,3.71096341 1.80476536,3.70546792 2.51081877,3.69962165 C2.70947485,3.6979847 2.7926672,3.59649354 2.79775345,3.40222216 C2.80395049,3.16609152 2.71426878,3.06348957 2.4735196,3.05951411 C2.06030559,3.05279091 1.64697467,3.05694175 1.2337022,3.05442786 C1.17506416,3.05407708 1.11642613,3.041683 1.03077835,3.03174435 C1.0751515,2.96831238 1.09947196,2.92972703 1.12747557,2.89406481 C1.54109881,2.36778405 1.95858058,1.84442642 2.3672345,1.31428712 C2.49094147,1.15380715 2.60634673,0.982745435 2.69713923,0.802212775 C2.79342721,0.610806063 2.68988986,0.419223962 2.48287362,0.36444446 C2.40798297,0.34456716 2.32853223,0.333400794 2.25106922,0.333050018 C1.67562136,0.330477661 1.10017351,0.32977611 0.524725659,0.333517719 C0.437557849,0.334102346 0.346473042,0.349068784 0.264566871,0.378066258 C0.146180007,0.419925514 0.0840342115,0.512881126 0.0804679899,0.643135908 C0.0769017683,0.772221436 0.13057048,0.871724865 0.24533266,0.921418116 C0.319287911,0.953455648 0.406514183,0.966025117 0.488069578,0.96719437 C0.833291519,0.97204677 1.17863039,0.96894825 1.52385233,0.969883652 C1.57915799,0.970000577 1.6344052,0.97602223 1.73484403,0.98198542" id="Fill-4"></path>
                    <path d="M5.85334471,1.90006532 C5.85316933,1.90006532 5.85299394,1.90006532 5.85281855,1.90006532 C5.85281855,2.39202851 5.84972003,2.88405016 5.85416319,3.37595489 C5.85638477,3.62781198 5.97886402,3.74011873 6.22551794,3.73567557 C6.45650386,3.73152472 6.5680506,3.61723024 6.56951216,3.36437929 C6.57296146,2.75209996 6.57120758,2.13970372 6.57114912,1.52736593 C6.57114912,1.15577734 6.56962909,0.784188741 6.57044756,0.412600144 C6.57079834,0.254984843 6.50754175,0.13881956 6.35875431,0.0790707326 C6.10362331,-0.0234727535 5.85848943,0.132096355 5.85509859,0.408449296 C5.84890155,0.905615662 5.85334471,1.40284049 5.85334471,1.90006532" id="Fill-6"></path>
                    <path d="M3.96463284,3.0954511 C3.65361155,2.99875388 3.48991613,2.59770011 3.60514601,2.2147113 C3.70155092,1.89439444 3.99439033,1.72637279 4.29798686,1.81728221 C4.55042858,1.89287441 4.70342533,2.13379899 4.70371765,2.4562205 C4.70418535,2.92976795 4.3677328,3.22079502 3.96463284,3.0954511 M5.43549462,1.50000541 C5.43391613,1.31070336 5.29126727,1.18834103 5.1007375,1.17489462 C4.9216664,1.16220823 4.80889195,1.26293937 4.71833331,1.39576651 C4.69202512,1.38313858 4.67512941,1.37974774 4.66495691,1.36951678 C4.26916478,0.972555395 3.56930841,1.09404078 3.22011101,1.4594908 C2.88400924,1.81131902 2.80280462,2.23277625 2.84986705,2.69369578 C2.91335749,3.31509527 3.42560722,3.79133201 4.02122468,3.7938459 C4.28465738,3.79495669 4.51061552,3.70504114 4.70570538,3.5164991 C4.74353071,3.5615738 4.77159278,3.59805449 4.80281184,3.63172898 C4.92312797,3.76174991 5.07483854,3.75642981 5.22467831,3.71287514 C5.36592407,3.67183436 5.43648849,3.56139841 5.43695619,3.41582642 C5.43888546,2.7772389 5.44099011,2.13859293 5.43549462,1.50000541" id="Fill-8"></path>
                    <path d="M8.78208957,2.46930444 C8.78132956,2.93466712 8.42429816,3.23177431 8.0293245,3.09000238 C7.77103652,2.99722216 7.66749917,2.78096882 7.64540029,2.52782555 C7.62277524,2.26930372 7.69456738,2.03276384 7.92075936,1.88239791 C8.28024619,1.6434026 8.73935337,1.90204136 8.78162187,2.35951158 C8.7850127,2.39581689 8.78208957,2.43270682 8.78208957,2.46930444 M8.20903869,1.11782339 C7.45785211,1.11823262 6.8992415,1.69619437 6.9026908,2.46942136 C6.90614009,3.22996196 7.45294125,3.78892335 8.19798925,3.79330805 C8.97747174,3.7979266 9.51316499,3.26106409 9.51632198,2.47205218 C9.51953742,1.67497243 8.98127182,1.11735568 8.20903869,1.11782339" id="Fill-10"></path>
                </g>
            </g>
        </g>
    </g>
</svg>